<?xml version="1.0" encoding="UTF-8" standalone="no"?>
<!-- Created with Inkscape (http://www.inkscape.org/) -->

<svg
   width="1920"
   height="1080"
   viewBox="0 0 507.99998 285.75"
   version="1.1"
   id="svg5"
   inkscape:version="1.2.2 (732a01da63, 2022-12-09)"
   xml:space="preserve"
   sodipodi:docname="androidapps.svg"
   xmlns:inkscape="http://www.inkscape.org/namespaces/inkscape"
   xmlns:sodipodi="http://sodipodi.sourceforge.net/DTD/sodipodi-0.dtd"
   xmlns="http://www.w3.org/2000/svg"
   xmlns:svg="http://www.w3.org/2000/svg"><sodipodi:namedview
     id="namedview7"
     pagecolor="#000000"
     bordercolor="#111111"
     borderopacity="1"
     inkscape:showpageshadow="0"
     inkscape:pageopacity="0"
     inkscape:pagecheckerboard="1"
     inkscape:deskcolor="#d1d1d1"
     inkscape:document-units="mm"
     showgrid="false"
     inkscape:zoom="0.63697917"
     inkscape:cx="935.66639"
     inkscape:cy="540.04906"
     inkscape:window-width="1920"
     inkscape:window-height="1009"
     inkscape:window-x="-8"
     inkscape:window-y="-8"
     inkscape:window-maximized="1"
     inkscape:current-layer="layer1" /><defs
     id="defs2"><rect
       x="885.42927"
       y="125.5928"
       width="1014.1619"
       height="408.17661"
       id="rect334" /></defs><g
     inkscape:label="Layer 1"
     inkscape:groupmode="layer"
     id="layer1"><g
       aria-label="android
apps"
       transform="matrix(1.0674328,0,0,1.0674328,-725.3875,-74.038843)"
       id="text332"
       style="font-size:64px;font-family:'Euclid Circular A';-inkscape-font-specification:'Euclid Circular A';white-space:pre;shape-inside:url(#rect334);fill:#ffffff;stroke-width:2.70274625;stroke-linecap:round;stroke-linejoin:round;paint-order:fill markers stroke;fill-opacity:1;stroke-dasharray:none;stroke:none"><path
         d="m 903.75878,195.96464 q -6.7702,0 -11.51632,-5.37429 -4.67632,-5.37428 -4.67632,-12.84244 0,-7.46816 4.67632,-12.84245 4.74612,-5.37428 11.51632,-5.37428 6.00245,0 9.49224,4.25755 v -3.48979 h 10.53918 v 34.89794 h -10.53918 v -3.48979 q -3.48979,4.25755 -9.49224,4.25755 z m -3.42,-12.0049 q 2.23347,2.44286 5.79306,2.44286 3.55959,0 5.72327,-2.44286 2.23346,-2.44285 2.23346,-6.21183 0,-3.76898 -2.23346,-6.21184 -2.16368,-2.44285 -5.72327,-2.44285 -3.55959,0 -5.79306,2.44285 -2.16367,2.44286 -2.16367,6.21184 0,3.76898 2.16367,6.21183 z"
         id="path442"
         style="stroke:none;stroke-width:2.70274625;stroke-dasharray:none;stroke-opacity:1;fill:#ffffff;fill-opacity:1" /><path
         d="m 932.44495,195.19688 v -34.89794 h 10.53918 v 3.55959 q 3.00122,-4.32735 9.70163,-4.32735 6.35142,0 9.91101,4.25755 3.62939,4.25755 3.62939,11.23714 v 20.17101 h -10.53918 v -18.35632 q 0,-7.74734 -5.65347,-7.74734 -3.14081,0 -5.0951,2.30326 -1.95428,2.30327 -1.95428,6.84 v 16.9604 z"
         id="path444"
         style="stroke:none;stroke-width:2.70274625;stroke-dasharray:none;stroke-opacity:1;fill:#ffffff;fill-opacity:1" /><path
         d="m 988.5608,195.96464 q -6.7702,0 -11.51632,-5.37429 -4.67633,-5.37428 -4.67633,-12.84244 0,-7.46816 4.67633,-12.84245 4.74612,-5.37428 11.51632,-5.37428 6.00245,0 9.49224,4.25755 v -20.93877 h 10.53916 v 52.34692 h -10.53916 v -3.48979 q -3.48979,4.25755 -9.49224,4.25755 z m -3.42,-12.0049 q 2.23347,2.44286 5.79306,2.44286 3.55959,0 5.72326,-2.44286 2.23347,-2.44285 2.23347,-6.21183 0,-3.76898 -2.23347,-6.21184 -2.16367,-2.44285 -5.72326,-2.44285 -3.55959,0 -5.79306,2.44285 -2.16367,2.44286 -2.16367,6.21184 0,3.76898 2.16367,6.21183 z"
         id="path446"
         style="stroke:none;stroke-width:2.70274625;stroke-dasharray:none;stroke-opacity:1;fill:#ffffff;fill-opacity:1" /><path
         d="m 1017.247,195.19688 v -34.89794 h 10.5392 v 5.23469 q 0.8375,-2.37306 3.1408,-3.97837 2.3033,-1.6751 5.1649,-1.6751 1.8147,0 3.42,0.41878 v 10.67877 q -2.4428,-0.83755 -4.6763,-0.83755 -3.3502,0 -5.2347,2.37306 -1.8147,2.30326 -1.8147,6.14203 v 16.54163 z"
         id="path448"
         style="stroke:none;stroke-width:2.70274625;stroke-dasharray:none;stroke-opacity:1;fill:#ffffff;fill-opacity:1" /><path
         d="m 1073.2931,190.72994 q -5.3743,5.2347 -12.982,5.2347 -7.6078,0 -12.9821,-5.2347 -5.3742,-5.30448 -5.3742,-12.98203 0,-7.67755 5.3742,-12.91224 5.3743,-5.30449 12.9821,-5.30449 7.6077,0 12.982,5.30449 5.3743,5.23469 5.3743,12.91224 0,7.67755 -5.3743,12.98203 z m -18.5657,-6.90979 q 2.2335,2.30327 5.5837,2.30327 3.3502,0 5.5139,-2.30327 2.2334,-2.30326 2.2334,-6.07224 0,-3.76898 -2.2334,-6.07224 -2.1637,-2.30327 -5.5139,-2.30327 -3.3502,0 -5.5837,2.30327 -2.1637,2.30326 -2.1637,6.07224 0,3.76898 2.1637,6.07224 z"
         id="path450"
         style="stroke:none;stroke-width:2.70274625;stroke-dasharray:none;stroke-opacity:1;fill:#ffffff;fill-opacity:1" /><path
         d="m 1090.393,155.55282 q -2.6522,0 -4.6065,-1.88449 -1.9543,-1.95429 -1.9543,-4.67633 0,-2.72204 1.9543,-4.60653 1.9543,-1.95428 4.6065,-1.95428 2.7918,0 4.6763,1.95428 1.9543,1.88449 1.9543,4.60653 0,2.72204 -1.9543,4.67633 -1.8845,1.88449 -4.6763,1.88449 z m -5.2347,39.64406 v -34.89794 h 10.5392 v 34.89794 z"
         id="path452"
         style="stroke:none;stroke-width:2.70274625;stroke-dasharray:none;stroke-opacity:1;fill:#ffffff;fill-opacity:1" /><path
         d="m 1118.451,195.96464 q -6.7703,0 -11.5164,-5.37429 -4.6763,-5.37428 -4.6763,-12.84244 0,-7.46816 4.6763,-12.84245 4.7461,-5.37428 11.5164,-5.37428 6.0024,0 9.4922,4.25755 v -20.93877 h 10.5392 v 52.34692 h -10.5392 v -3.48979 q -3.4898,4.25755 -9.4922,4.25755 z m -3.42,-12.0049 q 2.2334,2.44286 5.793,2.44286 3.5596,0 5.7233,-2.44286 2.2334,-2.44285 2.2334,-6.21183 0,-3.76898 -2.2334,-6.21184 -2.1637,-2.44285 -5.7233,-2.44285 -3.5596,0 -5.793,2.44285 -2.1637,2.44286 -2.1637,6.21184 0,3.76898 2.1637,6.21183 z"
         id="path454"
         style="stroke:none;stroke-width:2.70274625;stroke-dasharray:none;stroke-opacity:1;fill:#ffffff;fill-opacity:1" /><path
         d="m 903.75878,245.03752 q -6.7702,0 -11.51632,-5.37429 -4.67632,-5.37428 -4.67632,-12.84244 0,-7.46816 4.67632,-12.84244 4.74612,-5.37429 11.51632,-5.37429 6.00245,0 9.49224,4.25755 v -3.48979 h 10.53918 v 34.89794 h -10.53918 v -3.48979 q -3.48979,4.25755 -9.49224,4.25755 z m -3.42,-12.00489 q 2.23347,2.44285 5.79306,2.44285 3.55959,0 5.72327,-2.44285 2.23346,-2.44286 2.23346,-6.21184 0,-3.76898 -2.23346,-6.21183 -2.16368,-2.44286 -5.72327,-2.44286 -3.55959,0 -5.79306,2.44286 -2.16367,2.44285 -2.16367,6.21183 0,3.76898 2.16367,6.21184 z"
         id="path456"
         style="stroke:none;stroke-width:2.70274625;stroke-dasharray:none;stroke-opacity:1;fill:#ffffff;fill-opacity:1" /><path
         d="m 942.98413,258.8571 h -10.53918 v -49.48528 h 10.53918 v 3.48979 q 1.11673,-1.6751 3.69918,-2.93142 2.58245,-1.32613 5.79306,-1.32613 6.7702,0 11.44652,5.37429 4.74612,5.37428 4.74612,12.84244 0,7.46816 -4.74612,12.84244 -4.67632,5.37429 -11.44652,5.37429 -3.21061,0 -5.79306,-1.25633 -2.58245,-1.32612 -3.69918,-3.00122 z m 1.32612,-25.82447 q 2.23347,2.44285 5.79306,2.44285 3.55959,0 5.72326,-2.44285 2.23347,-2.44286 2.23347,-6.21184 0,-3.76898 -2.23347,-6.21183 -2.16367,-2.44286 -5.72326,-2.44286 -3.55959,0 -5.79306,2.44286 -2.16367,2.44285 -2.16367,6.21183 0,3.76898 2.16367,6.21184 z"
         id="path458"
         style="stroke:none;stroke-width:2.70274625;stroke-dasharray:none;stroke-opacity:1;fill:#ffffff;fill-opacity:1" /><path
         d="m 985.76907,258.8571 h -10.53918 v -49.48528 h 10.53918 v 3.48979 q 1.11674,-1.6751 3.69918,-2.93142 2.58245,-1.32613 5.79306,-1.32613 6.77019,0 11.44649,5.37429 4.7462,5.37428 4.7462,12.84244 0,7.46816 -4.7462,12.84244 -4.6763,5.37429 -11.44649,5.37429 -3.21061,0 -5.79306,-1.25633 -2.58244,-1.32612 -3.69918,-3.00122 z m 1.32612,-25.82447 q 2.23347,2.44285 5.79306,2.44285 3.55959,0 5.72327,-2.44285 2.23348,-2.44286 2.23348,-6.21184 0,-3.76898 -2.23348,-6.21183 -2.16368,-2.44286 -5.72327,-2.44286 -3.55959,0 -5.79306,2.44286 -2.16367,2.44285 -2.16367,6.21183 0,3.76898 2.16367,6.21184 z"
         id="path460"
         style="stroke:none;stroke-width:2.70274625;stroke-dasharray:none;stroke-opacity:1;fill:#ffffff;fill-opacity:1" /><path
         d="m 1032.1137,245.03752 q -6.9796,0 -11.5164,-3.42 -4.4669,-3.48979 -4.7461,-8.72449 h 11.0976 q 0.1395,2.02408 1.6751,3.14082 1.5355,1.04694 3.8387,1.04694 3.9086,0 3.9086,-2.23347 0,-1.11674 -0.9073,-1.6751 -0.8376,-0.62817 -3.0711,-1.25633 l -7.0493,-1.81469 q -8.7943,-2.30327 -8.7943,-10.95796 0,-4.67632 3.9085,-7.60775 3.9086,-2.93143 10.6788,-2.93143 6.0025,0 9.9808,3.00123 4.0482,2.93142 4.467,8.30571 h -10.609 q -0.6282,-3.21061 -4.0482,-3.21061 -3.5596,0 -3.5596,2.23347 0,1.95428 3.5596,2.72204 l 6.3514,1.6751 q 5.2347,1.39591 7.538,4.04816 2.3033,2.65224 2.3033,6.90979 0,4.81592 -4.1878,7.81714 -4.1877,2.93143 -10.8183,2.93143 z"
         id="path462"
         style="stroke:none;stroke-width:2.70274625;stroke-dasharray:none;stroke-opacity:1;fill:#ffffff;fill-opacity:1" /></g><g
       id="g3348"
       transform="matrix(0.40752205,0,0,0.40752205,2.8417105,26.25163)"
       style="fill:#ffffff;fill-opacity:1;stroke:none;stroke-width:7.80473;stroke-dasharray:none;stroke-opacity:1"><g
         id="g3290"
         style="fill:#ffffff;fill-opacity:1;stroke:none;stroke-width:7.80473;stroke-dasharray:none;stroke-opacity:1">
	<g
   id="g3288"
   style="fill:#ffffff;fill-opacity:1;stroke:none;stroke-width:7.80473;stroke-dasharray:none;stroke-opacity:1">
		<path
   d="m 76.774,179.141 c -9.529,0 -17.614,3.323 -24.26,9.969 -6.646,6.646 -9.97,14.621 -9.97,23.929 v 142.914 c 0,9.541 3.323,17.619 9.97,24.266 6.646,6.646 14.731,9.97 24.26,9.97 9.522,0 17.558,-3.323 24.101,-9.97 6.53,-6.646 9.804,-14.725 9.804,-24.266 V 213.039 c 0,-9.309 -3.323,-17.283 -9.97,-23.929 -6.647,-6.646 -14.627,-9.969 -23.935,-9.969 z"
   id="path3280"
   style="fill:#ffffff;fill-opacity:1;stroke:none;stroke-width:7.80473;stroke-dasharray:none;stroke-opacity:1" />
		<path
   d="M 351.972,50.847 375.57,7.315 c 1.549,-2.882 0.998,-5.092 -1.658,-6.646 -2.883,-1.34 -5.098,-0.661 -6.646,1.989 l -23.928,43.88 c -21.055,-9.309 -43.324,-13.972 -66.807,-13.972 -23.488,0 -45.759,4.664 -66.806,13.972 L 185.796,2.658 c -1.555,-2.65 -3.77,-3.323 -6.646,-1.989 -2.662,1.561 -3.213,3.764 -1.658,6.646 l 23.599,43.532 c -23.929,12.203 -42.987,29.198 -57.167,51.022 -14.18,21.836 -21.273,45.698 -21.273,71.628 h 307.426 c 0,-25.924 -7.094,-49.787 -21.273,-71.628 C 394.623,80.045 375.675,63.05 351.972,50.847 Z m -136.433,63.318 c -2.552,2.558 -5.6,3.831 -9.143,3.831 -3.55,0 -6.536,-1.273 -8.972,-3.831 -2.436,-2.546 -3.654,-5.582 -3.654,-9.137 0,-3.543 1.218,-6.585 3.654,-9.137 2.436,-2.546 5.429,-3.819 8.972,-3.819 3.543,0 6.591,1.273 9.143,3.819 2.546,2.558 3.825,5.594 3.825,9.137 -0.007,3.549 -1.285,6.591 -3.825,9.137 z m 140.086,0 c -2.441,2.558 -5.434,3.831 -8.971,3.831 -3.551,0 -6.598,-1.273 -9.145,-3.831 -2.551,-2.546 -3.824,-5.582 -3.824,-9.137 0,-3.543 1.273,-6.585 3.824,-9.137 2.547,-2.546 5.594,-3.819 9.145,-3.819 3.543,0 6.529,1.273 8.971,3.819 2.438,2.558 3.654,5.594 3.654,9.137 0,3.549 -1.217,6.591 -3.654,9.137 z"
   id="path3282"
   style="fill:#ffffff;fill-opacity:1;stroke:none;stroke-width:7.80473;stroke-dasharray:none;stroke-opacity:1" />
		<path
   d="m 123.971,406.804 c 0,10.202 3.543,18.838 10.63,25.925 7.093,7.087 15.729,10.63 25.924,10.63 h 24.596 l 0.337,75.454 c 0,9.528 3.323,17.619 9.969,24.266 6.646,6.647 14.627,9.97 23.929,9.97 9.523,0 17.613,-3.323 24.26,-9.97 6.647,-6.647 9.97,-14.737 9.97,-24.266 v -75.447 h 45.864 v 75.447 c 0,9.528 3.322,17.619 9.969,24.266 6.647,6.647 14.73,9.97 24.26,9.97 9.523,0 17.613,-3.323 24.26,-9.97 6.647,-6.647 9.969,-14.737 9.969,-24.266 v -75.447 h 24.928 c 9.969,0 18.494,-3.544 25.594,-10.631 7.086,-7.087 10.631,-15.723 10.631,-25.924 V 185.45 h -305.09 z"
   id="path3284"
   style="fill:#ffffff;fill-opacity:1;stroke:none;stroke-width:7.80473;stroke-dasharray:none;stroke-opacity:1" />
		<path
   d="m 476.275,179.141 c -9.309,0 -17.283,3.274 -23.93,9.804 -6.646,6.542 -9.969,14.578 -9.969,24.094 v 142.914 c 0,9.541 3.322,17.619 9.969,24.266 6.647,6.647 14.627,9.97 23.93,9.97 9.523,0 17.613,-3.323 24.26,-9.97 6.647,-6.647 9.969,-14.725 9.969,-24.266 V 213.039 c 0,-9.517 -3.322,-17.552 -9.969,-24.094 -6.647,-6.53 -14.737,-9.804 -24.26,-9.804 z"
   id="path3286"
   style="fill:#ffffff;fill-opacity:1;stroke:none;stroke-width:7.80473;stroke-dasharray:none;stroke-opacity:1" />
	</g>
</g><g
         id="g3292"
         style="fill:#ffffff;fill-opacity:1;stroke:none;stroke-width:7.80473;stroke-dasharray:none;stroke-opacity:1">
</g><g
         id="g3294"
         style="fill:#ffffff;fill-opacity:1;stroke:none;stroke-width:7.80473;stroke-dasharray:none;stroke-opacity:1">
</g><g
         id="g3296"
         style="fill:#ffffff;fill-opacity:1;stroke:none;stroke-width:7.80473;stroke-dasharray:none;stroke-opacity:1">
</g><g
         id="g3298"
         style="fill:#ffffff;fill-opacity:1;stroke:none;stroke-width:7.80473;stroke-dasharray:none;stroke-opacity:1">
</g><g
         id="g3300"
         style="fill:#ffffff;fill-opacity:1;stroke:none;stroke-width:7.80473;stroke-dasharray:none;stroke-opacity:1">
</g><g
         id="g3302"
         style="fill:#ffffff;fill-opacity:1;stroke:none;stroke-width:7.80473;stroke-dasharray:none;stroke-opacity:1">
</g><g
         id="g3304"
         style="fill:#ffffff;fill-opacity:1;stroke:none;stroke-width:7.80473;stroke-dasharray:none;stroke-opacity:1">
</g><g
         id="g3306"
         style="fill:#ffffff;fill-opacity:1;stroke:none;stroke-width:7.80473;stroke-dasharray:none;stroke-opacity:1">
</g><g
         id="g3308"
         style="fill:#ffffff;fill-opacity:1;stroke:none;stroke-width:7.80473;stroke-dasharray:none;stroke-opacity:1">
</g><g
         id="g3310"
         style="fill:#ffffff;fill-opacity:1;stroke:none;stroke-width:7.80473;stroke-dasharray:none;stroke-opacity:1">
</g><g
         id="g3312"
         style="fill:#ffffff;fill-opacity:1;stroke:none;stroke-width:7.80473;stroke-dasharray:none;stroke-opacity:1">
</g><g
         id="g3314"
         style="fill:#ffffff;fill-opacity:1;stroke:none;stroke-width:7.80473;stroke-dasharray:none;stroke-opacity:1">
</g><g
         id="g3316"
         style="fill:#ffffff;fill-opacity:1;stroke:none;stroke-width:7.80473;stroke-dasharray:none;stroke-opacity:1">
</g><g
         id="g3318"
         style="fill:#ffffff;fill-opacity:1;stroke:none;stroke-width:7.80473;stroke-dasharray:none;stroke-opacity:1">
</g><g
         id="g3320"
         style="fill:#ffffff;fill-opacity:1;stroke:none;stroke-width:7.80473;stroke-dasharray:none;stroke-opacity:1">
</g></g></g></svg>
