<?xml version="1.0" encoding="UTF-8" standalone="no"?>
<!-- Created with Inkscape (http://www.inkscape.org/) -->

<svg
   width="1920"
   height="1080"
   viewBox="0 0 507.99998 285.75"
   version="1.1"
   id="svg5"
   inkscape:version="1.2.2 (732a01da63, 2022-12-09)"
   xml:space="preserve"
   sodipodi:docname="androidgames.svg"
   xmlns:inkscape="http://www.inkscape.org/namespaces/inkscape"
   xmlns:sodipodi="http://sodipodi.sourceforge.net/DTD/sodipodi-0.dtd"
   xmlns="http://www.w3.org/2000/svg"
   xmlns:svg="http://www.w3.org/2000/svg"><sodipodi:namedview
     id="namedview7"
     pagecolor="#000000"
     bordercolor="#111111"
     borderopacity="1"
     inkscape:showpageshadow="0"
     inkscape:pageopacity="0"
     inkscape:pagecheckerboard="1"
     inkscape:deskcolor="#d1d1d1"
     inkscape:document-units="mm"
     showgrid="false"
     inkscape:zoom="0.63697917"
     inkscape:cx="1040.8504"
     inkscape:cy="540.04906"
     inkscape:window-width="1920"
     inkscape:window-height="1009"
     inkscape:window-x="-8"
     inkscape:window-y="-8"
     inkscape:window-maximized="1"
     inkscape:current-layer="text4587" /><defs
     id="defs2"><rect
       x="863.45053"
       y="210.36795"
       width="850.89125"
       height="436.435"
       id="rect4589" /><rect
       x="885.42927"
       y="125.5928"
       width="1014.1619"
       height="408.17661"
       id="rect334" /></defs><g
     inkscape:label="Layer 1"
     inkscape:groupmode="layer"
     id="layer1"><g
       id="g3348"
       transform="matrix(0.40752205,0,0,0.40752205,2.8417105,26.25163)"
       style="fill:#a4c639;fill-opacity:1;stroke:#fffffa;stroke-width:7.80473;stroke-dasharray:none;stroke-opacity:1"><g
         id="g3290"
         style="fill:#a4c639;fill-opacity:1;stroke:#fffffa;stroke-width:7.80473;stroke-dasharray:none;stroke-opacity:1">
	<g
   id="g3288"
   style="fill:#a4c639;fill-opacity:1;stroke:#fffffa;stroke-width:7.80473;stroke-dasharray:none;stroke-opacity:1">
		<path
   d="m 76.774,179.141 c -9.529,0 -17.614,3.323 -24.26,9.969 -6.646,6.646 -9.97,14.621 -9.97,23.929 v 142.914 c 0,9.541 3.323,17.619 9.97,24.266 6.646,6.646 14.731,9.97 24.26,9.97 9.522,0 17.558,-3.323 24.101,-9.97 6.53,-6.646 9.804,-14.725 9.804,-24.266 V 213.039 c 0,-9.309 -3.323,-17.283 -9.97,-23.929 -6.647,-6.646 -14.627,-9.969 -23.935,-9.969 z"
   id="path3280"
   style="fill:#a4c639;fill-opacity:1;stroke:#fffffa;stroke-width:7.80473;stroke-dasharray:none;stroke-opacity:1" />
		<path
   d="M 351.972,50.847 375.57,7.315 c 1.549,-2.882 0.998,-5.092 -1.658,-6.646 -2.883,-1.34 -5.098,-0.661 -6.646,1.989 l -23.928,43.88 c -21.055,-9.309 -43.324,-13.972 -66.807,-13.972 -23.488,0 -45.759,4.664 -66.806,13.972 L 185.796,2.658 c -1.555,-2.65 -3.77,-3.323 -6.646,-1.989 -2.662,1.561 -3.213,3.764 -1.658,6.646 l 23.599,43.532 c -23.929,12.203 -42.987,29.198 -57.167,51.022 -14.18,21.836 -21.273,45.698 -21.273,71.628 h 307.426 c 0,-25.924 -7.094,-49.787 -21.273,-71.628 C 394.623,80.045 375.675,63.05 351.972,50.847 Z m -136.433,63.318 c -2.552,2.558 -5.6,3.831 -9.143,3.831 -3.55,0 -6.536,-1.273 -8.972,-3.831 -2.436,-2.546 -3.654,-5.582 -3.654,-9.137 0,-3.543 1.218,-6.585 3.654,-9.137 2.436,-2.546 5.429,-3.819 8.972,-3.819 3.543,0 6.591,1.273 9.143,3.819 2.546,2.558 3.825,5.594 3.825,9.137 -0.007,3.549 -1.285,6.591 -3.825,9.137 z m 140.086,0 c -2.441,2.558 -5.434,3.831 -8.971,3.831 -3.551,0 -6.598,-1.273 -9.145,-3.831 -2.551,-2.546 -3.824,-5.582 -3.824,-9.137 0,-3.543 1.273,-6.585 3.824,-9.137 2.547,-2.546 5.594,-3.819 9.145,-3.819 3.543,0 6.529,1.273 8.971,3.819 2.438,2.558 3.654,5.594 3.654,9.137 0,3.549 -1.217,6.591 -3.654,9.137 z"
   id="path3282"
   style="fill:#a4c639;fill-opacity:1;stroke:#fffffa;stroke-width:7.80473;stroke-dasharray:none;stroke-opacity:1" />
		<path
   d="m 123.971,406.804 c 0,10.202 3.543,18.838 10.63,25.925 7.093,7.087 15.729,10.63 25.924,10.63 h 24.596 l 0.337,75.454 c 0,9.528 3.323,17.619 9.969,24.266 6.646,6.647 14.627,9.97 23.929,9.97 9.523,0 17.613,-3.323 24.26,-9.97 6.647,-6.647 9.97,-14.737 9.97,-24.266 v -75.447 h 45.864 v 75.447 c 0,9.528 3.322,17.619 9.969,24.266 6.647,6.647 14.73,9.97 24.26,9.97 9.523,0 17.613,-3.323 24.26,-9.97 6.647,-6.647 9.969,-14.737 9.969,-24.266 v -75.447 h 24.928 c 9.969,0 18.494,-3.544 25.594,-10.631 7.086,-7.087 10.631,-15.723 10.631,-25.924 V 185.45 h -305.09 z"
   id="path3284"
   style="fill:#a4c639;fill-opacity:1;stroke:#fffffa;stroke-width:7.80473;stroke-dasharray:none;stroke-opacity:1" />
		<path
   d="m 476.275,179.141 c -9.309,0 -17.283,3.274 -23.93,9.804 -6.646,6.542 -9.969,14.578 -9.969,24.094 v 142.914 c 0,9.541 3.322,17.619 9.969,24.266 6.647,6.647 14.627,9.97 23.93,9.97 9.523,0 17.613,-3.323 24.26,-9.97 6.647,-6.647 9.969,-14.725 9.969,-24.266 V 213.039 c 0,-9.517 -3.322,-17.552 -9.969,-24.094 -6.647,-6.53 -14.737,-9.804 -24.26,-9.804 z"
   id="path3286"
   style="fill:#a4c639;fill-opacity:1;stroke:#fffffa;stroke-width:7.80473;stroke-dasharray:none;stroke-opacity:1" />
	</g>
</g><g
         id="g3292"
         style="fill:#a4c639;fill-opacity:1;stroke:#fffffa;stroke-width:7.80473;stroke-dasharray:none;stroke-opacity:1">
</g><g
         id="g3294"
         style="fill:#a4c639;fill-opacity:1;stroke:#fffffa;stroke-width:7.80473;stroke-dasharray:none;stroke-opacity:1">
</g><g
         id="g3296"
         style="fill:#a4c639;fill-opacity:1;stroke:#fffffa;stroke-width:7.80473;stroke-dasharray:none;stroke-opacity:1">
</g><g
         id="g3298"
         style="fill:#a4c639;fill-opacity:1;stroke:#fffffa;stroke-width:7.80473;stroke-dasharray:none;stroke-opacity:1">
</g><g
         id="g3300"
         style="fill:#a4c639;fill-opacity:1;stroke:#fffffa;stroke-width:7.80473;stroke-dasharray:none;stroke-opacity:1">
</g><g
         id="g3302"
         style="fill:#a4c639;fill-opacity:1;stroke:#fffffa;stroke-width:7.80473;stroke-dasharray:none;stroke-opacity:1">
</g><g
         id="g3304"
         style="fill:#a4c639;fill-opacity:1;stroke:#fffffa;stroke-width:7.80473;stroke-dasharray:none;stroke-opacity:1">
</g><g
         id="g3306"
         style="fill:#a4c639;fill-opacity:1;stroke:#fffffa;stroke-width:7.80473;stroke-dasharray:none;stroke-opacity:1">
</g><g
         id="g3308"
         style="fill:#a4c639;fill-opacity:1;stroke:#fffffa;stroke-width:7.80473;stroke-dasharray:none;stroke-opacity:1">
</g><g
         id="g3310"
         style="fill:#a4c639;fill-opacity:1;stroke:#fffffa;stroke-width:7.80473;stroke-dasharray:none;stroke-opacity:1">
</g><g
         id="g3312"
         style="fill:#a4c639;fill-opacity:1;stroke:#fffffa;stroke-width:7.80473;stroke-dasharray:none;stroke-opacity:1">
</g><g
         id="g3314"
         style="fill:#a4c639;fill-opacity:1;stroke:#fffffa;stroke-width:7.80473;stroke-dasharray:none;stroke-opacity:1">
</g><g
         id="g3316"
         style="fill:#a4c639;fill-opacity:1;stroke:#fffffa;stroke-width:7.80473;stroke-dasharray:none;stroke-opacity:1">
</g><g
         id="g3318"
         style="fill:#a4c639;fill-opacity:1;stroke:#fffffa;stroke-width:7.80473;stroke-dasharray:none;stroke-opacity:1">
</g><g
         id="g3320"
         style="fill:#a4c639;fill-opacity:1;stroke:#fffffa;stroke-width:7.80473;stroke-dasharray:none;stroke-opacity:1">
</g></g><g
       aria-label="android
games
"
       transform="matrix(1.1367479,0,0,1.1367479,-754.85774,-189.11249)"
       id="text4587"
       style="font-size:64px;font-family:'Euclid Circular A';-inkscape-font-specification:'Euclid Circular A';white-space:pre;shape-inside:url(#rect4589);fill:#ffffff;stroke-width:7.80473;stroke-linecap:round;stroke-linejoin:round;paint-order:fill markers stroke"><path
         d="m 874.86611,287.11261 q -6.208,0 -10.56,-4.928 -4.288,-4.928 -4.288,-11.776 0,-6.848 4.288,-11.776 4.352,-4.928 10.56,-4.928 5.504,0 8.704,3.904 v -3.2 h 9.664 v 32 h -9.664 v -3.2 q -3.2,3.904 -8.704,3.904 z m -3.136,-11.008 q 2.048,2.24 5.312,2.24 3.264,0 5.248,-2.24 2.048,-2.24 2.048,-5.696 0,-3.456 -2.048,-5.696 -1.984,-2.24 -5.248,-2.24 -3.264,0 -5.312,2.24 -1.984,2.24 -1.984,5.696 0,3.456 1.984,5.696 z"
         id="path4643"
         style="fill:#a4c639;fill-opacity:1;stroke:#fffffa;stroke-width:2.52651;stroke-dasharray:none;stroke-opacity:1" /><path
         d="m 901.17017,286.40861 v -32 h 9.664 v 3.264 q 2.752,-3.968 8.896,-3.968 5.824,0 9.088,3.904 3.328,3.904 3.328,10.304 v 18.496 h -9.664 v -16.832 q 0,-7.104 -5.184,-7.104 -2.88,0 -4.672,2.112 -1.792,2.112 -1.792,6.272 v 15.552 z"
         id="path4645"
         style="fill:#a4c639;fill-opacity:1;stroke:#fffffa;stroke-width:2.52651;stroke-dasharray:none;stroke-opacity:1" /><path
         d="m 952.62612,287.11261 q -6.208,0 -10.56,-4.928 -4.288,-4.928 -4.288,-11.776 0,-6.848 4.288,-11.776 4.352,-4.928 10.56,-4.928 5.504,0 8.704,3.904 v -19.2 h 9.664 v 48 h -9.664 v -3.2 q -3.2,3.904 -8.704,3.904 z m -3.136,-11.008 q 2.048,2.24 5.312,2.24 3.264,0 5.248,-2.24 2.048,-2.24 2.048,-5.696 0,-3.456 -2.048,-5.696 -1.984,-2.24 -5.248,-2.24 -3.264,0 -5.312,2.24 -1.984,2.24 -1.984,5.696 0,3.456 1.984,5.696 z"
         id="path4647"
         style="fill:#a4c639;fill-opacity:1;stroke:#fffffa;stroke-width:2.52651;stroke-dasharray:none;stroke-opacity:1" /><path
         d="m 978.93018,286.40861 v -32 h 9.664 v 4.8 q 0.768,-2.176 2.88,-3.648 2.112,-1.536 4.73596,-1.536 1.664,0 3.136,0.384 v 9.792 q -2.24,-0.768 -4.288,-0.768 -3.07196,0 -4.79996,2.176 -1.664,2.112 -1.664,5.632 v 15.168 z"
         id="path4649"
         style="fill:#a4c639;fill-opacity:1;stroke:#fffffa;stroke-width:2.52651;stroke-dasharray:none;stroke-opacity:1" /><path
         d="m 1030.3222,282.31261 q -4.928,4.8 -11.904,4.8 -6.976,0 -11.904,-4.8 -4.928,-4.864 -4.928,-11.904 0,-7.04 4.928,-11.84 4.928,-4.864 11.904,-4.864 6.976,0 11.904,4.864 4.928,4.8 4.928,11.84 0,7.04 -4.928,11.904 z m -17.024,-6.336 q 2.048,2.112 5.12,2.112 3.072,0 5.056,-2.112 2.048,-2.112 2.048,-5.568 0,-3.456 -2.048,-5.568 -1.984,-2.112 -5.056,-2.112 -3.072,0 -5.12,2.112 -1.984,2.112 -1.984,5.568 0,3.456 1.984,5.568 z"
         id="path4651"
         style="fill:#a4c639;fill-opacity:1;stroke:#fffffa;stroke-width:2.52651;stroke-dasharray:none;stroke-opacity:1" /><path
         d="m 1046.0021,250.05661 q -2.432,0 -4.224,-1.728 -1.792,-1.792 -1.792,-4.288 0,-2.496 1.792,-4.224 1.792,-1.792 4.224,-1.792 2.56,0 4.288,1.792 1.792,1.728 1.792,4.224 0,2.496 -1.792,4.288 -1.728,1.728 -4.288,1.728 z m -4.8,36.352 v -32 h 9.664 v 32 z"
         id="path4653"
         style="fill:#a4c639;fill-opacity:1;stroke:#fffffa;stroke-width:2.52651;stroke-dasharray:none;stroke-opacity:1" /><path
         d="m 1071.7301,287.11261 q -6.208,0 -10.56,-4.928 -4.288,-4.928 -4.288,-11.776 0,-6.848 4.288,-11.776 4.352,-4.928 10.56,-4.928 5.504,0 8.704,3.904 v -19.2 h 9.664 v 48 h -9.664 v -3.2 q -3.2,3.904 -8.704,3.904 z m -3.136,-11.008 q 2.048,2.24 5.312,2.24 3.264,0 5.248,-2.24 2.048,-2.24 2.048,-5.696 0,-3.456 -2.048,-5.696 -1.984,-2.24 -5.248,-2.24 -3.264,0 -5.312,2.24 -1.984,2.24 -1.984,5.696 0,3.456 1.984,5.696 z"
         id="path4655"
         style="fill:#a4c639;fill-opacity:1;stroke:#fffffa;stroke-width:2.52651;stroke-dasharray:none;stroke-opacity:1" /><path
         d="m 877.04211,342.25279 q -6.72,0 -11.008,-3.52 -4.224,-3.456 -4.608,-8.768 h 9.408 q 1.472,4.288 6.464,4.288 2.688,0 4.544,-1.728 1.856,-1.664 1.856,-4.864 v -3.776 q -1.152,1.728 -3.52,2.816 -2.304,1.088 -5.184,1.088 -6.144,0 -10.56,-4.672 -4.416,-4.736 -4.416,-11.456 0,-6.72 4.416,-11.392 4.416,-4.736 10.56,-4.736 2.88,0 5.184,1.088 2.368,1.088 3.52,2.816 v -3.2 h 9.664 v 30.016 q 0,4.288 -1.408,7.488 -1.344,3.2 -3.712,4.992 -2.304,1.792 -5.12,2.624 -2.816,0.896 -6.08,0.896 z m -5.12,-25.28 q 2.176,2.048 5.184,2.048 3.008,0 5.184,-2.048 2.176,-2.048 2.176,-5.312 0,-3.264 -2.176,-5.312 -2.176,-2.048 -5.184,-2.048 -3.008,0 -5.184,2.048 -2.176,2.048 -2.176,5.312 0,3.264 2.176,5.312 z"
         id="path4657"
         style="fill:#a4c639;fill-opacity:1;stroke:#fffffa;stroke-width:2.52651;stroke-dasharray:none;stroke-opacity:1" /><path
         d="m 914.2261,328.94079 q -6.208,0 -10.56,-4.928 -4.288,-4.928 -4.288,-11.776 0,-6.848 4.288,-11.776 4.352,-4.928 10.56,-4.928 5.504,0 8.704,3.904 v -3.2 h 9.664 v 32 h -9.664 v -3.2 q -3.2,3.904 -8.704,3.904 z m -3.136,-11.008 q 2.048,2.24 5.312,2.24 3.264,0 5.248,-2.24 2.048,-2.24 2.048,-5.696 0,-3.456 -2.048,-5.696 -1.984,-2.24 -5.248,-2.24 -3.264,0 -5.312,2.24 -1.984,2.24 -1.984,5.696 0,3.456 1.984,5.696 z"
         id="path4659"
         style="fill:#a4c639;fill-opacity:1;stroke:#fffffa;stroke-width:2.52651;stroke-dasharray:none;stroke-opacity:1" /><path
         d="m 980.59415,328.23679 v -16.576 q 0,-7.36 -4.608,-7.36 -5.504,0 -5.76,8 v 15.936 h -9.664 v -16.576 q 0,-7.36 -4.608,-7.36 -2.688,0 -4.224,2.112 -1.536,2.048 -1.536,6.272 v 15.552 h -9.664 v -32 h 9.664 v 3.264 q 3.072,-3.968 8.192,-3.968 6.72,0 9.856,5.632 1.408,-2.752 4.224,-4.16 2.816,-1.472 5.632,-1.472 5.824,0 8.96,3.84 3.2,3.84 3.2,10.624 v 18.24 z"
         id="path4661"
         style="fill:#a4c639;fill-opacity:1;stroke:#fffffa;stroke-width:2.52651;stroke-dasharray:none;stroke-opacity:1" /><path
         d="m 1012.8501,328.94079 q -7.424,0 -12.224,-4.736 -4.73596,-4.736 -4.73596,-12.032 0,-7.168 4.79996,-11.904 4.864,-4.736 12.16,-4.736 3.52,0 6.592,1.216 3.136,1.216 5.504,3.52 2.432,2.304 3.776,5.952 1.344,3.648 1.216,8.256 h -24.64 q 0.256,2.624 2.304,4.416 2.048,1.728 5.76,1.728 2.112,0 3.84,-0.832 1.728,-0.896 2.304,-2.176 h 10.112 q -1.536,5.056 -6.144,8.192 -4.608,3.136 -10.624,3.136 z m -0.256,-25.728 q -2.752,0 -4.608,1.408 -1.792,1.408 -2.432,3.712 h 13.696 q -0.704,-2.624 -2.624,-3.84 -1.856,-1.28 -4.032,-1.28 z"
         id="path4663"
         style="fill:#a4c639;fill-opacity:1;stroke:#fffffa;stroke-width:2.52651;stroke-dasharray:none;stroke-opacity:1" /><path
         d="m 1048.8822,328.94079 q -6.4,0 -10.56,-3.136 -4.096,-3.2 -4.352,-8 h 10.176 q 0.128,1.856 1.536,2.88 1.408,0.96 3.52,0.96 3.584,0 3.584,-2.048 0,-1.024 -0.832,-1.536 -0.768,-0.576 -2.816,-1.152 l -6.464,-1.664 q -8.064,-2.112 -8.064,-10.048 0,-4.288 3.584,-6.976 3.584,-2.688 9.792,-2.688 5.504,0 9.152,2.752 3.712,2.688 4.096,7.616 h -9.728 q -0.576,-2.944 -3.712,-2.944 -3.264,0 -3.264,2.048 0,1.792 3.264,2.496 l 5.824,1.536 q 4.8,1.28 6.912,3.712 2.112,2.432 2.112,6.336 0,4.416 -3.84,7.168 -3.84,2.688 -9.92,2.688 z"
         id="path4665"
         style="fill:#a4c639;fill-opacity:1;stroke:#fffffa;stroke-width:2.52651;stroke-dasharray:none;stroke-opacity:1" /></g></g></svg>
